<?xml version="1.0" encoding="UTF-8"?>
<svg xmlns="http://www.w3.org/2000/svg" viewBox="0 0 400 400" width="400" height="400">
  <!-- Bowl body -->
  <path d="M 80 200 Q 80 300 200 320 Q 320 300 320 200" fill="none" stroke="black" stroke-width="2.5" stroke-linecap="round"/>
  <!-- Bowl rim -->
  <ellipse cx="200" cy="200" rx="120" ry="30" fill="none" stroke="black" stroke-width="2.5" stroke-linecap="round"/>
  <!-- Oatmeal lumps -->
  <circle cx="150" cy="220" r="18" fill="none" stroke="black" stroke-width="2" stroke-linecap="round"/>
  <circle cx="200" cy="210" r="22" fill="none" stroke="black" stroke-width="2" stroke-linecap="round"/>
  <circle cx="250" cy="225" r="15" fill="none" stroke="black" stroke-width="2" stroke-linecap="round"/>
  <circle cx="175" cy="235" r="12" fill="none" stroke="black" stroke-width="2" stroke-linecap="round"/>
  <circle cx="225" cy="230" r="16" fill="none" stroke="black" stroke-width="2" stroke-linecap="round"/>
  <!-- Frowny face -->
  <circle cx="160" cy="195" r="6" fill="black"/>
  <circle cx="240" cy="195" r="6" fill="black"/>
  <path d="M 170 220 Q 200 240 230 220" fill="none" stroke="black" stroke-width="2.5" stroke-linecap="round"/>
  <!-- Steam fists -->
  <path d="M 130 160 C 120 140 125 120 135 115 C 145 110 140 125 145 135 C 150 125 155 115 150 130 C 148 145 140 155 135 165" fill="none" stroke="black" stroke-width="2" stroke-linecap="round"/>
  <path d="M 200 155 C 195 135 200 115 210 110 C 220 105 215 120 220 130 C 225 120 230 110 225 125 C 222 140 215 150 205 160" fill="none" stroke="black" stroke-width="2" stroke-linecap="round"/>
  <path d="M 270 160 C 280 140 275 120 265 115 C 255 110 260 125 255 135 C 250 125 245 115 250 130 C 252 145 260 155 265 165" fill="none" stroke="black" stroke-width="2" stroke-linecap="round"/>

  <text x="200" y="375" text-anchor="middle" font-family="Comic Sans MS, cursive" font-size="22" fill="black" font-weight="bold">STICKY SADNESS</text>
</svg>