<?xml version="1.0" encoding="UTF-8"?>
<svg xmlns="http://www.w3.org/2000/svg" viewBox="0 0 400 400" width="400" height="400">
  <!-- Column base -->
  <rect x="140" y="300" width="120" height="20" fill="none" stroke="black" stroke-width="2.5" stroke-linecap="round"/>
  <!-- Column shaft -->
  <rect x="160" y="150" width="80" height="150" fill="none" stroke="black" stroke-width="2.5" stroke-linecap="round"/>
  <!-- Column fluting -->
  <line x1="175" y1="160" x2="175" y2="290" stroke="black" stroke-width="1.5" stroke-linecap="round"/>
  <line x1="190" y1="160" x2="190" y2="290" stroke="black" stroke-width="1.5" stroke-linecap="round"/>
  <line x1="210" y1="160" x2="210" y2="290" stroke="black" stroke-width="1.5" stroke-linecap="round"/>
  <line x1="225" y1="160" x2="225" y2="290" stroke="black" stroke-width="1.5" stroke-linecap="round"/>
  <!-- Column capital -->
  <path d="M 150 150 L 140 130 L 260 130 L 250 150" fill="none" stroke="black" stroke-width="2.5" stroke-linecap="round"/>
  <!-- Juice box on top -->
  <rect x="170" y="80" width="60" height="50" fill="none" stroke="black" stroke-width="2" stroke-linecap="round"/>
  <rect x="195" y="70" width="10" height="10" fill="none" stroke="black" stroke-width="1.5" stroke-linecap="round"/>
  <text x="200" y="110" text-anchor="middle" font-family="Comic Sans MS, cursive" font-size="10" fill="black">OJ</text>
  <!-- Ginger cat on juice box -->
  <ellipse cx="200" cy="65" rx="20" ry="15" fill="none" stroke="black" stroke-width="2" stroke-linecap="round"/>
  <circle cx="192" cy="60" r="3" fill="black"/>
  <circle cx="208" cy="60" r="3" fill="black"/>
  <path d="M 195 70 Q 200 75 205 70" fill="none" stroke="black" stroke-width="1.5" stroke-linecap="round"/>
  <path d="M 180 55 L 175 45" stroke="black" stroke-width="1.5" stroke-linecap="round"/>
  <path d="M 220 55 L 225 45" stroke="black" stroke-width="1.5" stroke-linecap="round"/>
  <!-- Cat tail -->
  <path d="M 220 75 Q 240 70 245 55" fill="none" stroke="black" stroke-width="2" stroke-linecap="round"/>
  <!-- Crown on cat -->
  <path d="M 188 52 L 192 42 L 196 50 L 200 40 L 204 50 L 208 42 L 212 52" fill="none" stroke="black" stroke-width="1.5" stroke-linecap="round"/>

  <text x="200" y="375" text-anchor="middle" font-family="Comic Sans MS, cursive" font-size="22" fill="black" font-weight="bold">COLUMN OF SHAME</text>
</svg>