<?xml version="1.0" encoding="UTF-8"?>
<svg xmlns="http://www.w3.org/2000/svg" viewBox="0 0 400 400" width="400" height="400">
  <!-- Dark archway -->
  <path d="M 50 350 L 50 100 Q 200 20 350 100 L 350 350" fill="none" stroke="black" stroke-width="2.5" stroke-linecap="round"/>
  <text x="200" y="200" text-anchor="middle" font-family="Comic Sans MS, cursive" font-size="14" fill="black">DARKNESS</text>
  <!-- Paw prints leading to arch - large to small -->
  <ellipse cx="320" cy="320" rx="18" ry="12" fill="none" stroke="black" stroke-width="2" stroke-linecap="round"/>
  <circle cx="310" cy="305" r="5" fill="none" stroke="black" stroke-width="1.5"/>
  <circle cx="325" cy="300" r="5" fill="none" stroke="black" stroke-width="1.5"/>
  <circle cx="335" cy="308" r="5" fill="none" stroke="black" stroke-width="1.5"/>
  
  <ellipse cx="260" cy="300" rx="14" ry="9" fill="none" stroke="black" stroke-width="2" stroke-linecap="round"/>
  <circle cx="252" cy="288" r="4" fill="none" stroke="black" stroke-width="1.5"/>
  <circle cx="265" cy="284" r="4" fill="none" stroke="black" stroke-width="1.5"/>
  <circle cx="273" cy="290" r="4" fill="none" stroke="black" stroke-width="1.5"/>
  
  <ellipse cx="210" cy="285" rx="10" ry="7" fill="none" stroke="black" stroke-width="2" stroke-linecap="round"/>
  <circle cx="204" cy="276" r="3" fill="none" stroke="black" stroke-width="1.5"/>
  <circle cx="214" cy="273" r="3" fill="none" stroke="black" stroke-width="1.5"/>
  <circle cx="220" cy="278" r="3" fill="none" stroke="black" stroke-width="1.5"/>
  
  <ellipse cx="170" cy="275" rx="7" ry="5" fill="none" stroke="black" stroke-width="2" stroke-linecap="round"/>
  <circle cx="166" cy="269" r="2.5" fill="none" stroke="black" stroke-width="1.5"/>
  <circle cx="173" cy="267" r="2.5" fill="none" stroke="black" stroke-width="1.5"/>
  <circle cx="178" cy="271" r="2.5" fill="none" stroke="black" stroke-width="1.5"/>
  
  <!-- Mud splatters -->
  <circle cx="290" cy="330" r="6" fill="none" stroke="black" stroke-width="1.5"/>
  <circle cx="240" cy="310" r="4" fill="none" stroke="black" stroke-width="1.5"/>
  <circle cx="195" cy="295" r="3" fill="none" stroke="black" stroke-width="1.5"/>

  <text x="200" y="375" text-anchor="middle" font-family="Comic Sans MS, cursive" font-size="22" fill="black" font-weight="bold">THE EVIDENCE</text>
</svg>