<?xml version="1.0" encoding="UTF-8"?>
<svg xmlns="http://www.w3.org/2000/svg" viewBox="0 0 400 400" width="400" height="400">
  <!-- Paper background -->
  <rect x="80" y="60" width="240" height="280" fill="white" stroke="black" stroke-width="2.5" stroke-linecap="round"/>
  <!-- Spiral binding -->
  <circle cx="95" cy="80" r="4" fill="none" stroke="black" stroke-width="2"/>
  <circle cx="95" cy="120" r="4" fill="none" stroke="black" stroke-width="2"/>
  <circle cx="95" cy="160" r="4" fill="none" stroke="black" stroke-width="2"/>
  <circle cx="95" cy="200" r="4" fill="none" stroke="black" stroke-width="2"/>
  <circle cx="95" cy="240" r="4" fill="none" stroke="black" stroke-width="2"/>
  <circle cx="95" cy="280" r="4" fill="none" stroke="black" stroke-width="2"/>
  <circle cx="95" cy="320" r="4" fill="none" stroke="black" stroke-width="2"/>
  <!-- Title -->
  <text x="200" y="100" text-anchor="middle" font-family="Comic Sans MS, cursive" font-size="14" fill="black">FELINE LEDGER</text>
  <line x1="100" y1="110" x2="300" y2="110" stroke="black" stroke-width="1.5"/>
  <!-- Column headers -->
  <text x="115" y="130" font-family="Comic Sans MS, cursive" font-size="9" fill="black">SNACK</text>
  <text x="200" y="130" font-family="Comic Sans MS, cursive" font-size="9" fill="black">FAT %</text>
  <text x="270" y="130" font-family="Comic Sans MS, cursive" font-size="9" fill="black">DIGNITY</text>
  <line x1="100" y1="135" x2="300" y2="135" stroke="black" stroke-width="1"/>
  <!-- Ledger entries - tiny wobbly handwriting -->
  <text x="115" y="155" font-family="Comic Sans MS, cursive" font-size="7" fill="black">Salami</text>
  <text x="200" y="155" font-family="Comic Sans MS, cursive" font-size="7" fill="black">98%</text>
  <text x="270" y="155" font-family="Comic Sans MS, cursive" font-size="7" fill="black">MAX</text>
  
  <text x="115" y="175" font-family="Comic Sans MS, cursive" font-size="7" fill="black">Tuna</text>
  <text x="200" y="175" font-family="Comic Sans MS, cursive" font-size="7" fill="black">85%</text>
  <text x="270" y="175" font-family="Comic Sans MS, cursive" font-size="7" fill="black">HIGH</text>
  
  <text x="115" y="195" font-family="Comic Sans MS, cursive" font-size="7" fill="black">Cheese</text>
  <text x="200" y="195" font-family="Comic Sans MS, cursive" font-size="7" fill="black">72%</text>
  <text x="270" y="195" font-family="Comic Sans MS, cursive" font-size="7" fill="black">MED</text>
  
  <text x="115" y="215" font-family="Comic Sans MS, cursive" font-size="7" fill="black">Kibble</text>
  <text x="200" y="215" font-family="Comic Sans MS, cursive" font-size="7" fill="black">2%</text>
  <text x="270" y="215" font-family="Comic Sans MS, cursive" font-size="7" fill="black">ZERO</text>
  <!-- More lines -->
  <line x1="100" y1="220" x2="300" y2="220" stroke="black" stroke-width="0.5"/>
  <line x1="100" y1="240" x2="300" y2="240" stroke="black" stroke-width="0.5"/>
  <line x1="100" y1="260" x2="300" y2="260" stroke="black" stroke-width="0.5"/>
  <line x1="100" y1="280" x2="300" y2="280" stroke="black" stroke-width="0.5"/>
  <!-- Cat paw print stamp -->
  <ellipse cx="260" cy="310" rx="15" ry="10" fill="none" stroke="black" stroke-width="1.5" transform="rotate(-10 260 310)"/>
  <circle cx="250" cy="298" r="4" fill="none" stroke="black" stroke-width="1.5" transform="rotate(-10 250 298)"/>
  <circle cx="262" cy="295" r="4" fill="none" stroke="black" stroke-width="1.5" transform="rotate(-10 262 295)"/>
  <circle cx="272" cy="300" r="4" fill="none" stroke="black" stroke-width="1.5" transform="rotate(-10 272 300)"/>

  <text x="200" y="375" text-anchor="middle" font-family="Comic Sans MS, cursive" font-size="22" fill="black" font-weight="bold">FELINE LEDGER</text>
</svg>