<?xml version="1.0" encoding="UTF-8"?>
<svg xmlns="http://www.w3.org/2000/svg" viewBox="0 0 400 400" width="400" height="400">
  <!-- Chaotic kitchen scene -->
  <!-- Kitchen cabinets in background -->
  <rect x="40" y="40" width="80" height="120" fill="none" stroke="black" stroke-width="1.5"/>
  <rect x="280" y="40" width="80" height="120" fill="none" stroke="black" stroke-width="1.5"/>
  <!-- Cabinet handles -->
  <circle cx="80" cy="100" r="3" fill="none" stroke="black" stroke-width="1.5"/>
  <circle cx="320" cy="100" r="3" fill="none" stroke="black" stroke-width="1.5"/>
  
  <!-- Lulu spinning in center — DETAILED -->
  <!-- Body -->
  <ellipse cx="200" cy="200" rx="30" ry="40" fill="none" stroke="black" stroke-width="2.5" stroke-linecap="round"/>
  <!-- Dress with patterns -->
  <path d="M 175 180 Q 200 170 225 180" stroke="black" stroke-width="1.5"/>
  <path d="M 170 220 Q 200 240 230 220" stroke="black" stroke-width="1.5"/>
  <!-- Dress pattern — polka dots -->
  <circle cx="185" cy="195" r="2" fill="black"/>
  <circle cx="200" cy="188" r="2" fill="black"/>
  <circle cx="215" cy="198" r="2" fill="black"/>
  <circle cx="195" cy="210" r="2" fill="black"/>
  <circle cx="210" cy="208" r="2" fill="black"/>
  
  <!-- Head -->
  <circle cx="200" cy="140" r="25" fill="none" stroke="black" stroke-width="2.5" stroke-linecap="round"/>
  <!-- Messy pigtails — flying everywhere -->
  <path d="M 178 122 Q 155 105 148 88" stroke="black" stroke-width="2.5" stroke-linecap="round"/>
  <path d="M 172 130 Q 148 120 138 105" stroke="black" stroke-width="2.5" stroke-linecap="round"/>
  <path d="M 222 122 Q 245 105 252 88" stroke="black" stroke-width="2.5" stroke-linecap="round"/>
  <path d="M 228 130 Q 252 120 262 105" stroke="black" stroke-width="2.5" stroke-linecap="round"/>
  <!-- Hair ribbon — flying off -->
  <path d="M 175 118 L 165 108 L 178 112" fill="none" stroke="black" stroke-width="1.5"/>
  <path d="M 225 118 L 235 108 L 222 112" fill="none" stroke="black" stroke-width="1.5"/>
  <!-- Crazy spiral eyes -->
  <circle cx="190" cy="135" r="7" fill="none" stroke="black" stroke-width="2"/>
  <circle cx="190" cy="135" r="4" fill="none" stroke="black" stroke-width="1.5"/>
  <circle cx="190" cy="135" r="1.5" fill="black"/>
  <circle cx="210" cy="135" r="7" fill="none" stroke="black" stroke-width="2"/>
  <circle cx="210" cy="135" r="4" fill="none" stroke="black" stroke-width="1.5"/>
  <circle cx="210" cy="135" r="1.5" fill="black"/>
  <!-- Huge grin -->
  <path d="M 182 150 Q 200 170 218 150" fill="none" stroke="black" stroke-width="2.5" stroke-linecap="round"/>
  <!-- Teeth -->
  <rect x="190" y="152" width="5" height="5" fill="none" stroke="black" stroke-width="1"/>
  <rect x="198" y="152" width="5" height="5" fill="none" stroke="black" stroke-width="1"/>
  <rect x="206" y="150" width="5" height="4" fill="none" stroke="black" stroke-width="1"/>
  <!-- Ice cream smeared on face -->
  <ellipse cx="182" cy="158" rx="8" ry="5" fill="none" stroke="black" stroke-width="1.5"/>
  <ellipse cx="220" cy="155" rx="6" ry="4" fill="none" stroke="black" stroke-width="1.5"/>
  <circle cx="185" cy="162" r="2" fill="none" stroke="black" stroke-width="1"/>
  <circle cx="218" cy="158" r="1.5" fill="none" stroke="black" stroke-width="1"/>
  
  <!-- Arms outstretched -->
  <path d="M 172 190 Q 140 165 115 135" stroke="black" stroke-width="2.5" stroke-linecap="round"/>
  <path d="M 228 190 Q 260 165 285 135" stroke="black" stroke-width="2.5" stroke-linecap="round"/>
  <!-- Hands with sticky fingers -->
  <circle cx="112" cy="132" r="8" fill="none" stroke="black" stroke-width="2"/>
  <circle cx="288" cy="132" r="8" fill="none" stroke="black" stroke-width="2"/>
  <!-- Fingers spread -->
  <line x1="106" y1="126" x2="100" y2="118" stroke="black" stroke-width="1"/>
  <line x1="110" y1="124" x2="106" y2="115" stroke="black" stroke-width="1"/>
  <line x1="294" y1="126" x2="300" y2="118" stroke="black" stroke-width="1"/>
  <line x1="290" y1="124" x2="294" y2="115" stroke="black" stroke-width="1"/>
  
  <!-- Flying objects — scattered from spinning -->
  <!-- Ice cream cone — top left -->
  <path d="M 90 70 L 75 40 L 105 40 Z" fill="none" stroke="black" stroke-width="2"/>
  <circle cx="90" cy="35" r="8" fill="none" stroke="black" stroke-width="2"/>
  <text x="82" y="38" font-family="Comic Sans MS, cursive" font-size="5" fill="black">99</text>
  
  <!-- Banana — top right -->
  <path d="M 310 80 Q 330 60 320 40" stroke="black" stroke-width="2.5" stroke-linecap="round"/>
  
  <!-- Cookie — bottom left -->
  <circle cx="70" cy="280" r="12" fill="none" stroke="black" stroke-width="2"/>
  <circle cx="66" cy="276" r="1.5" fill="black"/>
  <circle cx="74" cy="282" r="1.5" fill="black"/>
  <circle cx="68" cy="284" r="1" fill="black"/>
  <circle cx="76" cy="278" r="1" fill="black"/>
  
  <!-- Apple — bottom right -->
  <circle cx="330" cy="290" r="10" fill="none" stroke="black" stroke-width="2"/>
  <path d="M 330 280 L 333 272" stroke="black" stroke-width="1.5"/>
  <ellipse cx="326" cy="278" rx="3" ry="2" fill="none" stroke="black" stroke-width="1"/>
  
  <!-- Spilled milk puddle -->
  <ellipse cx="150" cy="310" rx="30" ry="8" fill="none" stroke="black" stroke-width="1.5" stroke-dasharray="3 3"/>
  <ellipse cx="260" cy="305" rx="20" ry="5" fill="none" stroke="black" stroke-width="1" stroke-dasharray="2 3"/>
  
  <!-- Motion lines around Lulu -->
  <path d="M 140 110 Q 125 95 135 85" stroke="black" stroke-width="1" stroke-dasharray="3 2"/>
  <path d="M 260 110 Q 275 95 265 85" stroke="black" stroke-width="1" stroke-dasharray="3 2"/>
  <path d="M 130 260 Q 115 270 120 285" stroke="black" stroke-width="1" stroke-dasharray="3 2"/>
  <path d="M 270 260 Q 285 270 280 285" stroke="black" stroke-width="1" stroke-dasharray="3 2"/>
  
  <!-- Mummy in corner — exhausted, clipboard in hand -->
  <circle cx="340" cy="320" r="15" fill="none" stroke="black" stroke-width="1.5"/>
  <!-- Mummy's tight bun -->
  <circle cx="340" cy="308" r="4" fill="none" stroke="black" stroke-width="1.5"/>
  <!-- Mummy's tired eyes — spirals -->
  <circle cx="334" cy="318" r="3" fill="none" stroke="black" stroke-width="1"/>
  <circle cx="346" cy="318" r="3" fill="none" stroke="black" stroke-width="1"/>
  <!-- Clipboard -->
  <rect x="325" y="335" width="28" height="35" fill="white" stroke="black" stroke-width="1.5"/>
  <text x="339" y="348" text-anchor="middle" font-family="Comic Sans MS, cursive" font-size="5" fill="black">NEON</text>
  <text x="339" y="356" text-anchor="middle" font-family="Comic Sans MS, cursive" font-size="5" fill="black">ORANGE</text>
  <line x1="328" y1="360" x2="350" y2="360" stroke="black" stroke-width="0.5"/>
  
  <!-- Schedule floating around (blown off clipboard) -->
  <rect x="50" y="320" width="40" height="25" fill="white" stroke="black" stroke-width="1" transform="rotate(15 60 332)"/>
  <text x="62" y="332" font-family="Comic Sans MS, cursive" font-size="4" fill="black" transform="rotate(15 62 332)">SWIM</text>
  <text x="62" y="338" font-family="Comic Sans MS, cursive" font-size="4" fill="black" transform="rotate(15 62 338)">LU: 3pm</text>
  
  <!-- Arrow pointing to Lulu -->
  <path d="M 60 60 L 140 120" stroke="black" stroke-width="1.5" stroke-linecap="round"/>
  <text x="35" y="55" font-family="Comic Sans MS, cursive" font-size="8" fill="black">tornado</text>
  <text x="35" y="65" font-family="Comic Sans MS, cursive" font-size="8" fill="black">mode!</text>

  <text x="200" y="385" text-anchor="middle" font-family="Comic Sans MS, cursive" font-size="24" fill="black" font-weight="bold">LULU CHAOS</text>
</svg>