<?xml version="1.0" encoding="UTF-8"?>
<svg xmlns="http://www.w3.org/2000/svg" viewBox="0 0 400 400" width="400" height="400">
  <!-- Big Mud Flats — vast muddy terrain -->
  <!-- Undulating ground -->
  <path d="M 40 280 Q 80 270 120 275 Q 160 265 200 270 Q 240 260 280 268 Q 320 255 360 265" fill="none" stroke="black" stroke-width="2"/>
  <!-- Mud puddles -->
  <ellipse cx="80" cy="290" rx="20" ry="6" fill="none" stroke="black" stroke-width="1" stroke-dasharray="3 3"/>
  <ellipse cx="300" cy="285" rx="25" ry="7" fill="none" stroke="black" stroke-width="1" stroke-dasharray="3 3"/>
  <ellipse cx="200" cy="295" rx="15" ry="5" fill="none" stroke="black" stroke-width="1" stroke-dasharray="2 3"/>
  
  <!-- Distant hills -->
  <path d="M 40 250 Q 100 230 160 245" fill="none" stroke="black" stroke-width="1.5"/>
  <path d="M 240 240 Q 300 220 360 235" fill="none" stroke="black" stroke-width="1.5"/>
  
  <!-- Henry the Horse — majestic side view, mid-stride -->
  <!-- Body — muscular -->
  <ellipse cx="200" cy="180" rx="75" ry="42" fill="none" stroke="black" stroke-width="2.5" stroke-linecap="round"/>
  <!-- Neck — arched nobly -->
  <path d="M 135 165 Q 115 130 125 100" fill="none" stroke="black" stroke-width="2.5" stroke-linecap="round"/>
  <!-- Head — refined -->
  <ellipse cx="122" cy="85" rx="28" ry="20" fill="none" stroke="black" stroke-width="2.5" stroke-linecap="round"/>
  <!-- Ears — alert -->
  <path d="M 112 68 L 105 48 L 120 64" fill="none" stroke="black" stroke-width="2" stroke-linecap="round"/>
  <path d="M 135 66 L 142 46 L 128 62" fill="none" stroke="black" stroke-width="2" stroke-linecap="round"/>
  <!-- Forelock between ears -->
  <path d="M 118 68 Q 122 58 126 68" stroke="black" stroke-width="1.5"/>
  <!-- Eye — noble, slightly concerned -->
  <ellipse cx="115" cy="80" rx="5" ry="4" fill="none" stroke="black" stroke-width="2"/>
  <circle cx="115" cy="80" r="2" fill="black"/>
  <!-- Nostril — flaring -->
  <ellipse cx="98" cy="90" rx="4" ry="3" fill="none" stroke="black" stroke-width="1.5"/>
  <!-- Mouth — clenched jaw, determined -->
  <path d="M 100 100 Q 110 105 118 100" fill="none" stroke="black" stroke-width="2" stroke-linecap="round"/>
  <!-- Mane — flowing back -->
  <path d="M 132 70 Q 145 55 138 45" stroke="black" stroke-width="2.5" stroke-linecap="round"/>
  <path d="M 138 75 Q 152 58 145 48" stroke="black" stroke-width="2.5" stroke-linecap="round"/>
  <path d="M 142 82 Q 158 62 152 52" stroke="black" stroke-width="2.5" stroke-linecap="round"/>
  <path d="M 146 90 Q 162 68 156 58" stroke="black" stroke-width="2.5" stroke-linecap="round"/>
  
  <!-- SUPERHERO CAPE — flowing dramatically -->
  <path d="M 260 160 Q 310 140 335 155 Q 355 170 345 195 Q 330 215 305 210 Q 280 205 265 190" fill="none" stroke="black" stroke-width="2"/>
  <!-- Cape shine -->
  <path d="M 280 165 Q 305 150 320 165" stroke="black" stroke-width="1"/>
  <path d="M 290 180 Q 310 168 325 182" stroke="black" stroke-width="1"/>
  <!-- Cape pattern — star on back -->
  <path d="M 295 175 L 298 185 L 308 185 L 300 192 L 303 202 L 295 195 L 287 202 L 290 192 L 282 185 L 292 185 Z" fill="none" stroke="black" stroke-width="1.5"/>
  
  <!-- Legs — powerful stride -->
  <path d="M 150 215 L 140 265 L 130 285" stroke="black" stroke-width="2.5" stroke-linecap="round"/>
  <path d="M 175 220 L 168 270 L 158 290" stroke="black" stroke-width="2.5" stroke-linecap="round"/>
  <path d="M 225 220 L 235 270 L 242 288" stroke="black" stroke-width="2.5" stroke-linecap="round"/>
  <path d="M 255 215 L 268 260 L 278 280" stroke="black" stroke-width="2.5" stroke-linecap="round"/>
  <!-- Horseshoes -->
  <path d="M 125 285 Q 130 293 138 288" stroke="black" stroke-width="2"/>
  <path d="M 153 290 Q 158 298 166 293" stroke="black" stroke-width="2"/>
  <path d="M 237 288 Q 242 296 250 291" stroke="black" stroke-width="2"/>
  <path d="M 273 280 Q 278 288 286 283" stroke="black" stroke-width="2"/>
  
  <!-- Tail — flowing dramatically -->
  <path d="M 270 185 Q 300 175 315 190 Q 325 205 310 210" fill="none" stroke="black" stroke-width="2.5" stroke-linecap="round"/>
  <path d="M 272 190 Q 295 182 308 195" fill="none" stroke="black" stroke-width="1.5"/>
  
  <!-- Bea riding Henry — balanced on back -->
  <!-- Bea's body -->
  <ellipse cx="200" cy="145" rx="12" ry="18" fill="none" stroke="black" stroke-width="2.5" stroke-linecap="round"/>
  <!-- Bea's head -->
  <circle cx="200" cy="122" r="12" fill="none" stroke="black" stroke-width="2.5"/>
  <!-- Bea's determined face -->
  <circle cx="195" cy="118" r="2" fill="black"/>
  <circle cx="205" cy="118" r="2" fill="black"/>
  <path d="M 196 128 Q 200 132 204 128" stroke="black" stroke-width="2"/>
  <!-- Bea's hair — flying back -->
  <path d="M 190 115 Q 180 108 175 112" stroke="black" stroke-width="2"/>
  <path d="M 210 115 Q 220 108 225 112" stroke="black" stroke-width="2"/>
  <!-- Bea's arms holding mane -->
  <path d="M 190 145 Q 175 150 165 155" stroke="black" stroke-width="2"/>
  <path d="M 210 145 Q 225 150 230 148" stroke="black" stroke-width="2"/>
  
  <!-- Barnaby tucked in front of Bea — small and round -->
  <circle cx="200" cy="155" r="15" fill="none" stroke="black" stroke-width="2"/>
  <circle cx="195" cy="152" r="2" fill="black"/>
  <circle cx="205" cy="152" r="2" fill="black"/>
  <path d="M 196 160 Q 200 164 204 160" stroke="black" stroke-width="1.5"/>
  <!-- Barnaby's worried expression -->
  <path d="M 192 148 L 190 144" stroke="black" stroke-width="1"/>
  <path d="M 208 148 L 210 144" stroke="black" stroke-width="1"/>
  
  <!-- Parents' car in background — broken down -->
  <rect x="50" y="230" width="55" height="28" fill="none" stroke="black" stroke-width="1.5"/>
  <circle cx="62" cy="262" r="7" fill="none" stroke="black" stroke-width="1.5"/>
  <circle cx="92" cy="262" r="7" fill="none" stroke="black" stroke-width="1.5"/>
  <!-- Flat tire on one -->
  <circle cx="62" cy="262" r="3" fill="black"/>
  <!-- Smoke from hood -->
  <path d="M 75 225 Q 70 215 75 205" stroke="black" stroke-width="1" stroke-dasharray="3 2"/>
  <path d="M 72 220 Q 67 212 70 202" stroke="black" stroke-width="1" stroke-dasharray="2 2"/>
  <!-- Daddy peering under hood -->
  <circle cx="80" cy="215" r="6" fill="none" stroke="black" stroke-width="1.5"/>
  <line x1="83" y1="220" x2="90" y2="230" stroke="black" stroke-width="1.5"/>
  
  <!-- Big Muddy Flats signpost -->
  <rect x="310" y="200" width="6" height="60" fill="none" stroke="black" stroke-width="2"/>
  <rect x="295" y="195" width="40" height="20" fill="white" stroke="black" stroke-width="1.5"/>
  <text x="315" y="205" text-anchor="middle" font-family="Comic Sans MS, cursive" font-size="5" fill="black">BIG MUDDY</text>
  <text x="315" y="212" text-anchor="middle" font-family="Comic Sans MS, cursive" font-size="5" fill="black">FLATS</text>
  
  <!-- Arrow pointing to Henry -->
  <path d="M 140 50 L 160 90" stroke="black" stroke-width="1.5" stroke-linecap="round"/>
  <text x="105" y="45" font-family="Comic Sans MS, cursive" font-size="8" fill="black">noble</text>
  <text x="105" y="55" font-family="Comic Sans MS, cursive" font-size="8" fill="black">steed!</text>

  <text x="200" y="385" text-anchor="middle" font-family="Comic Sans MS, cursive" font-size="24" fill="black" font-weight="bold">SIR HENRY</text>
</svg>