<?xml version="1.0" encoding="UTF-8"?>
<svg xmlns="http://www.w3.org/2000/svg" viewBox="0 0 400 400" width="400" height="400">

  <rect x="60" y="60" width="280" height="280" fill="none" stroke="black" stroke-width="2.5"/>
  <rect x="60" y="60" width="280" height="70" fill="none" stroke="black" stroke-width="2"/>
  <text x="200" y="100" text-anchor="middle" font-family="Comic Sans MS, cursive" font-size="18" fill="black">SLIME</text>
  <circle cx="100" cy="85" r="5" fill="none" stroke="black" stroke-width="1.5"/><circle cx="150" cy="78" r="3" fill="none" stroke="black" stroke-width="1"/>
  <circle cx="250" cy="90" r="4" fill="none" stroke="black" stroke-width="1.2"/><circle cx="310" cy="80" r="6" fill="none" stroke="black" stroke-width="1.5"/>
  <path d="M 120 130 Q 115 145 125 150" fill="none" stroke="black" stroke-width="1.5"/>
  <path d="M 200 130 Q 205 140 198 148" fill="none" stroke="black" stroke-width="1.5"/>
  <rect x="60" y="130" width="280" height="70" fill="none" stroke="black" stroke-width="2"/>
  <text x="200" y="170" text-anchor="middle" font-family="Comic Sans MS, cursive" font-size="16" fill="black">MYSTERY GOOP</text>
  <path d="M 80 150 Q 120 145 160 152 Q 200 158 240 148 Q 280 142 320 150" fill="none" stroke="black" stroke-width="1.5"/>
  <path d="M 90 165 Q 130 160 170 167 Q 210 172 250 163 Q 290 158 330 165" fill="none" stroke="black" stroke-width="1"/>
  <circle cx="130" cy="155" r="4" fill="none" stroke="black" stroke-width="1"/><circle cx="270" cy="160" r="3" fill="none" stroke="black" stroke-width="1"/>
  <rect x="60" y="200" width="280" height="70" fill="none" stroke="black" stroke-width="2"/>
  <text x="200" y="240" text-anchor="middle" font-family="Comic Sans MS, cursive" font-size="18" fill="black">CLUE</text>
  <ellipse cx="150" cy="230" rx="12" ry="8" fill="none" stroke="black" stroke-width="2"/>
  <circle cx="142" cy="222" r="4" fill="none" stroke="black" stroke-width="1.5"/>
  <circle cx="155" cy="219" r="4" fill="none" stroke="black" stroke-width="1.5"/>
  <circle cx="163" cy="224" r="4" fill="none" stroke="black" stroke-width="1.5"/>
  <path d="M 230 225 Q 240 235 235 245" stroke="black" stroke-width="1.5"/>
  <path d="M 235 228 Q 245 238 240 248" stroke="black" stroke-width="1"/>
  <text x="45" y="100" text-anchor="middle" font-family="Comic Sans MS, cursive" font-size="8" fill="black">0m</text>
  <text x="45" y="170" text-anchor="middle" font-family="Comic Sans MS, cursive" font-size="8" fill="black">2m</text>
  <text x="45" y="240" text-anchor="middle" font-family="Comic Sans MS, cursive" font-size="8" fill="black">4m</text>
  <line x1="55" y1="130" x2="55" y2="270" stroke="black" stroke-width="1"/>
  <line x1="52" y1="130" x2="58" y2="130" stroke="black" stroke-width="1"/>
  <line x1="52" y1="200" x2="58" y2="200" stroke="black" stroke-width="1"/>
  <line x1="52" y1="270" x2="58" y2="270" stroke="black" stroke-width="1"/>
  <path d="M 320 300 Q 335 290 330 275" stroke="black" stroke-width="2.5" stroke-linecap="round"/>
  <circle cx="328" cy="270" r="15" fill="none" stroke="black" stroke-width="2.5"/>
  <line x1="338" y1="280" x2="350" y2="295" stroke="black" stroke-width="3" stroke-linecap="round"/>
  <circle cx="322" cy="265" r="2" fill="none" stroke="black" stroke-width="0.8"/>
  <path d="M 200 300 L 200 340" stroke="black" stroke-width="2" stroke-linecap="round"/>
  <text x="200" y="355" text-anchor="middle" font-family="Comic Sans MS, cursive" font-size="8" fill="black">dig here!</text>
  <rect x="280" y="280" width="50" height="30" fill="white" stroke="black" stroke-width="1" transform="rotate(5 305 295)"/>
  <text x="305" y="292" text-anchor="middle" font-family="Comic Sans MS, cursive" font-size="5" fill="black" transform="rotate(5 305 292)">note: smells</text>
  <text x="305" y="300" text-anchor="middle" font-family="Comic Sans MS, cursive" font-size="5" fill="black" transform="rotate(5 305 300)">TERRIBLE</text>

  <text x="200" y="385" text-anchor="middle" font-family="Comic Sans MS, cursive" font-size="24" fill="black" font-weight="bold">MUD SCIENCE</text>
</svg>