<?xml version="1.0" encoding="UTF-8"?>
<svg xmlns="http://www.w3.org/2000/svg" viewBox="0 0 400 400" width="400" height="400">

  <ellipse cx="200" cy="200" rx="100" ry="50" fill="none" stroke="black" stroke-width="3"/>
  <rect x="175" y="120" width="50" height="35" fill="none" stroke="black" stroke-width="2.5"/>
  <rect x="185" y="105" width="30" height="15" fill="none" stroke="black" stroke-width="2"/>
  <line x1="200" y1="105" x2="200" y2="70" stroke="black" stroke-width="2.5"/>
  <rect x="195" y="60" width="10" height="8" fill="none" stroke="black" stroke-width="2"/>
  <circle cx="200" cy="58" r="3" fill="none" stroke="black" stroke-width="1.5"/>
  <ellipse cx="310" cy="200" rx="15" ry="25" fill="none" stroke="black" stroke-width="2"/>
  <line x1="310" y1="175" x2="310" y2="225" stroke="black" stroke-width="1.5"/>
  <line x1="298" y1="200" x2="322" y2="200" stroke="black" stroke-width="1.5"/>
  <circle cx="100" cy="190" r="20" fill="none" stroke="black" stroke-width="2.5"/>
  <circle cx="100" cy="190" r="12" fill="none" stroke="black" stroke-width="1.5"/>
  <path d="M 80 180 L 40 160" stroke="black" stroke-width="1" stroke-dasharray="3 2"/>
  <path d="M 80 190 L 35 180" stroke="black" stroke-width="1" stroke-dasharray="3 2"/>
  <path d="M 80 200 L 40 200" stroke="black" stroke-width="1" stroke-dasharray="3 2"/>
  <rect x="160" y="210" width="40" height="25" fill="none" stroke="black" stroke-width="2"/>
  <circle cx="180" cy="200" r="15" fill="none" stroke="black" stroke-width="2"/>
  <rect x="170" y="193" width="20" height="8" fill="none" stroke="black" stroke-width="1.5"/>
  <circle cx="175" cy="197" r="3" fill="none" stroke="black" stroke-width="1"/>
  <circle cx="185" cy="197" r="3" fill="none" stroke="black" stroke-width="1"/>
  <path d="M 175 207 Q 180 212 185 207" stroke="black" stroke-width="1.5"/>
  <path d="M 168 210 Q 155 220 148 215" stroke="black" stroke-width="2"/>
  <path d="M 192 210 Q 205 220 212 215" stroke="black" stroke-width="2"/>
  <rect x="140" y="230" width="80" height="15" fill="none" stroke="black" stroke-width="1.5"/>
  <circle cx="155" cy="237" r="3" fill="none" stroke="black" stroke-width="1"/>
  <circle cx="170" cy="237" r="3" fill="none" stroke="black" stroke-width="1"/>
  <circle cx="185" cy="237" r="3" fill="none" stroke="black" stroke-width="1"/>
  <rect x="195" y="233" width="10" height="8" fill="none" stroke="black" stroke-width="1"/>
  <text x="200" y="239" text-anchor="middle" font-family="Comic Sans MS, cursive" font-size="4" fill="black">GO</text>
  <circle cx="250" cy="170" r="15" fill="none" stroke="black" stroke-width="2"/>
  <text x="250" y="168" text-anchor="middle" font-family="Comic Sans MS, cursive" font-size="5" fill="black">DEPTH</text>
  <text x="250" y="178" text-anchor="middle" font-family="Comic Sans MS, cursive" font-size="6" fill="black">42m</text>
  <line x1="250" y1="170" x2="260" y2="160" stroke="black" stroke-width="1.5"/>
  <circle cx="150" cy="100" r="4" fill="none" stroke="black" stroke-width="1"/>
  <circle cx="170" cy="80" r="3" fill="none" stroke="black" stroke-width="1"/>
  <circle cx="140" cy="60" r="5" fill="none" stroke="black" stroke-width="1"/>
  <circle cx="185" cy="50" r="2" fill="none" stroke="black" stroke-width="0.8"/>
  <circle cx="155" cy="40" r="3" fill="none" stroke="black" stroke-width="0.8"/>
  <ellipse cx="50" cy="150" rx="15" ry="8" fill="none" stroke="black" stroke-width="1.5"/>
  <path d="M 35 150 L 25 142 L 25 158 Z" fill="none" stroke="black" stroke-width="1.5"/>
  <circle cx="55" cy="147" r="1.5" fill="black"/>
  <circle cx="58" cy="152" r="2" fill="none" stroke="black" stroke-width="1"/>

  <text x="200" y="385" text-anchor="middle" font-family="Comic Sans MS, cursive" font-size="24" fill="black" font-weight="bold">SALAMI SUB</text>
</svg>