<?xml version="1.0" encoding="UTF-8"?>
<svg xmlns="http://www.w3.org/2000/svg" viewBox="0 0 400 400" width="400" height="400">

  <rect x="50" y="50" width="300" height="300" fill="none" stroke="black" stroke-width="2.5"/>
  <!-- Aged paper texture -->
  <line x1="70" y1="70" x2="330" y2="70" stroke="black" stroke-width="0.3" stroke-dasharray="2 4"/>
  <line x1="70" y1="90" x2="330" y2="90" stroke="black" stroke-width="0.3" stroke-dasharray="3 3"/>
  <line x1="70" y1="110" x2="330" y2="110" stroke="black" stroke-width="0.3" stroke-dasharray="2 5"/>
  <line x1="70" y1="130" x2="330" y2="130" stroke="black" stroke-width="0.3" stroke-dasharray="4 2"/>
  <!-- Title -->
  <text x="200" y="80" text-anchor="middle" font-family="Comic Sans MS, cursive" font-size="14" fill="black">CANAL MAP</text>
  <text x="200" y="95" text-anchor="middle" font-family="Comic Sans MS, cursive" font-size="8" fill="black">of Riverstone</text>
  <!-- Winding canal paths -->
  <path d="M 80 150 Q 120 130 160 150 Q 200 170 240 140 Q 280 110 320 130" fill="none" stroke="black" stroke-width="2.5" stroke-linecap="round"/>
  <path d="M 80 200 Q 140 180 180 210 Q 220 240 280 200 Q 320 180 340 200" fill="none" stroke="black" stroke-width="2" stroke-linecap="round"/>
  <!-- DUCK POND label -->
  <ellipse cx="280" cy="120" rx="30" ry="20" fill="none" stroke="black" stroke-width="1.5"/>
  <text x="280" y="125" text-anchor="middle" font-family="Comic Sans MS, cursive" font-size="8" fill="black">DUCK POND</text>
  <!-- Ducks in pond -->
  <ellipse cx="270" cy="115" rx="6" ry="4" fill="none" stroke="black" stroke-width="1"/>
  <ellipse cx="290" cy="118" rx="5" ry="3" fill="none" stroke="black" stroke-width="1"/>
  <!-- MEOW-FIA HQ label -->
  <rect x="140" y="220" width="60" height="30" fill="white" stroke="black" stroke-width="2"/>
  <text x="170" y="235" text-anchor="middle" font-family="Comic Sans MS, cursive" font-size="7" fill="black">MEOW-FIA</text>
  <text x="170" y="245" text-anchor="middle" font-family="Comic Sans MS, cursive" font-size="7" fill="black">HQ</text>
  <!-- X marks the spot -->
  <path d="M 165 260 L 175 270 M 175 260 L 165 270" stroke="black" stroke-width="2.5" stroke-linecap="round"/>
  <text x="170" y="280" text-anchor="middle" font-family="Comic Sans MS, cursive" font-size="6" fill="black">CLUE HERE</text>
  <!-- Dotted path from pond to HQ -->
  <path d="M 280 140 Q 260 180 240 200 Q 220 220 200 230" fill="none" stroke="black" stroke-width="1.5" stroke-dasharray="4 3"/>
  <!-- Compass rose -->
  <circle cx="310" cy="280" r="20" fill="none" stroke="black" stroke-width="1.5"/>
  <line x1="310" y1="258" x2="310" y2="268" stroke="black" stroke-width="2"/>
  <line x1="310" y1="292" x2="310" y2="302" stroke="black" stroke-width="1.5"/>
  <line x1="288" y1="280" x2="298" y2="280" stroke="black" stroke-width="2"/>
  <line x1="322" y1="280" x2="332" y2="280" stroke="black" stroke-width="1.5"/>
  <text x="310" y="255" text-anchor="middle" font-family="Comic Sans MS, cursive" font-size="7" fill="black">N</text>
  <text x="310" y="310" text-anchor="middle" font-family="Comic Sans MS, cursive" font-size="6" fill="black">S</text>
  <text x="283" y="283" text-anchor="middle" font-family="Comic Sans MS, cursive" font-size="6" fill="black">W</text>
  <text x="337" y="283" text-anchor="middle" font-family="Comic Sans MS, cursive" font-size="6" fill="black">E</text>
  <!-- Small boat drawing -->
  <path d="M 100 160 L 120 160 L 115 170 Z" fill="none" stroke="black" stroke-width="1.5"/>
  <line x1="110" y1="160" x2="110" y2="148" stroke="black" stroke-width="1"/>
  <path d="M 110 148 L 118 155 L 110 155" fill="none" stroke="black" stroke-width="1"/>
  <!-- "HERE LIES CLUE" text -->
  <text x="170" y="310" text-anchor="middle" font-family="Comic Sans MS, cursive" font-size="8" fill="black">HERE LIES CLUE</text>
  <!-- Stain marks on paper -->
  <ellipse cx="90" cy="250" rx="15" ry="10" fill="none" stroke="black" stroke-width="0.5" stroke-dasharray="2 2"/>
  <ellipse cx="300" cy="180" rx="10" ry="8" fill="none" stroke="black" stroke-width="0.5" stroke-dasharray="2 2"/>

  <text x="200" y="385" text-anchor="middle" font-family="Comic Sans MS, cursive" font-size="24" fill="black" font-weight="bold">CANAL MAP</text>
</svg>