<?xml version="1.0" encoding="UTF-8"?>
<svg xmlns="http://www.w3.org/2000/svg" viewBox="0 0 400 400" width="400" height="400">

  <!-- Metal grate background -->
  <rect x="60" y="60" width="280" height="280" fill="none" stroke="black" stroke-width="3"/>
  <!-- Vertical bars -->
  <line x1="100" y1="60" x2="100" y2="340" stroke="black" stroke-width="3"/>
  <line x1="140" y1="60" x2="140" y2="340" stroke="black" stroke-width="3"/>
  <line x1="180" y1="60" x2="180" y2="340" stroke="black" stroke-width="3"/>
  <line x1="220" y1="60" x2="220" y2="340" stroke="black" stroke-width="3"/>
  <line x1="260" y1="60" x2="260" y2="340" stroke="black" stroke-width="3"/>
  <line x1="300" y1="60" x2="300" y2="340" stroke="black" stroke-width="3"/>
  <!-- Horizontal bars -->
  <line x1="60" y1="100" x2="340" y2="100" stroke="black" stroke-width="2.5"/>
  <line x1="60" y1="160" x2="340" y2="160" stroke="black" stroke-width="2.5"/>
  <line x1="60" y1="220" x2="340" y2="220" stroke="black" stroke-width="2.5"/>
  <line x1="60" y1="280" x2="340" y2="280" stroke="black" stroke-width="2.5"/>
  <!-- Cat face THROUGH the grate — filling the space -->
  <!-- Cat head outline -->
  <ellipse cx="200" cy="180" rx="90" ry="70" fill="none" stroke="black" stroke-width="3"/>
  <!-- Cat ears poking through bars -->
  <path d="M 120 120 L 100 70 L 140 110" fill="none" stroke="black" stroke-width="2.5"/>
  <path d="M 280 120 L 300 70 L 260 110" fill="none" stroke="black" stroke-width="2.5"/>
  <!-- Inner ears -->
  <path d="M 122 115 L 108 82 L 138 108" fill="none" stroke="black" stroke-width="1.5"/>
  <path d="M 278 115 L 292 82 L 262 108" fill="none" stroke="black" stroke-width="1.5"/>
  <!-- Glowing eyes -->
  <ellipse cx="160" cy="160" rx="20" ry="15" fill="none" stroke="black" stroke-width="2.5"/>
  <ellipse cx="240" cy="160" rx="20" ry="15" fill="none" stroke="black" stroke-width="2.5"/>
  <!-- Pupils — vertical slits -->
  <ellipse cx="160" cy="160" rx="5" ry="12" fill="black"/>
  <ellipse cx="240" cy="160" rx="5" ry="12" fill="black"/>
  <!-- Eye glow -->
  <circle cx="155" cy="155" r="2" fill="white" stroke="white" stroke-width="0.5"/>
  <circle cx="235" cy="155" r="2" fill="white" stroke="white" stroke-width="0.5"/>
  <!-- Nose -->
  <path d="M 195 195 L 200 190 L 205 195 Z" fill="black"/>
  <!-- Mouth — sinister grin -->
  <path d="M 170 210 Q 200 235 230 210" fill="none" stroke="black" stroke-width="2.5" stroke-linecap="round"/>
  <!-- Fangs -->
  <path d="M 180 212 L 178 222 L 184 218" fill="none" stroke="black" stroke-width="1.5"/>
  <path d="M 220 212 L 222 222 L 216 218" fill="none" stroke="black" stroke-width="1.5"/>
  <!-- Whiskers poking through bars -->
  <line x1="110" y1="180" x2="60" y2="170" stroke="black" stroke-width="1.5"/>
  <line x1="110" y1="190" x2="55" y2="190" stroke="black" stroke-width="1.5"/>
  <line x1="110" y1="200" x2="60" y2="210" stroke="black" stroke-width="1.5"/>
  <line x1="290" y1="180" x2="340" y2="170" stroke="black" stroke-width="1.5"/>
  <line x1="290" y1="190" x2="345" y2="190" stroke="black" stroke-width="1.5"/>
  <line x1="290" y1="200" x2="340" y2="210" stroke="black" stroke-width="1.5"/>
  <!-- Paws reaching through bars -->
  <path d="M 70 250 Q 60 240 70 230 Q 80 225 75 240" fill="none" stroke="black" stroke-width="2"/>
  <path d="M 330 250 Q 340 240 330 230 Q 320 225 325 240" fill="none" stroke="black" stroke-width="2"/>
  <!-- Claw marks -->
  <line x1="72" y1="255" x2="68" y2="265" stroke="black" stroke-width="1"/>
  <line x1="76" y1="253" x2="74" y2="263" stroke="black" stroke-width="1"/>
  <line x1="328" y1="255" x2="332" y2="265" stroke="black" stroke-width="1"/>
  <line x1="324" y1="253" x2="326" y2="263" stroke="black" stroke-width="1"/>
  <!-- "PEEK-A-BOO" text -->
  <text x="200" y="320" text-anchor="middle" font-family="Comic Sans MS, cursive" font-size="14" fill="black">PEEK-A-BOO</text>
  <!-- Small mouse running away -->
  <ellipse cx="50" cy="300" rx="10" ry="6" fill="none" stroke="black" stroke-width="1.5"/>
  <circle cx="42" cy="297" r="1.5" fill="black"/>
  <path d="M 38 292 L 32 285" stroke="black" stroke-width="1"/>
  <path d="M 40 292 L 36 284" stroke="black" stroke-width="1"/>
  <!-- Mouse sweat -->
  <ellipse cx="58" cy="290" rx="2" ry="3" fill="none" stroke="black" stroke-width="0.8"/>

  <text x="200" y="385" text-anchor="middle" font-family="Comic Sans MS, cursive" font-size="24" fill="black" font-weight="bold">THE GINGER NINJA</text>
</svg>