<?xml version="1.0" encoding="UTF-8"?>
<svg xmlns="http://www.w3.org/2000/svg" viewBox="0 0 400 400" width="400" height="400">

  <!-- Tactical diagram background -->
  <rect x="40" y="40" width="320" height="300" fill="none" stroke="black" stroke-width="2.5"/>
  <!-- Grid lines -->
  <line x1="120" y1="40" x2="120" y2="340" stroke="black" stroke-width="0.5" stroke-dasharray="3 3"/>
  <line x1="200" y1="40" x2="200" y2="340" stroke="black" stroke-width="0.5" stroke-dasharray="3 3"/>
  <line x1="280" y1="40" x2="280" y2="340" stroke="black" stroke-width="0.5" stroke-dasharray="3 3"/>
  <line x1="40" y1="120" x2="360" y2="120" stroke="black" stroke-width="0.5" stroke-dasharray="3 3"/>
  <line x1="40" y1="200" x2="360" y2="200" stroke="black" stroke-width="0.5" stroke-dasharray="3 3"/>
  <line x1="40" y1="280" x2="360" y2="280" stroke="black" stroke-width="0.5" stroke-dasharray="3 3"/>
  <!-- Title -->
  <text x="200" y="65" text-anchor="middle" font-family="Comic Sans MS, cursive" font-size="12" fill="black">OPERATION: MAT</text>
  <text x="200" y="80" text-anchor="middle" font-family="Comic Sans MS, cursive" font-size="8" fill="black">TOP SECRET</text>
  <!-- STEP 1 -->
  <circle cx="80" cy="110" r="12" fill="none" stroke="black" stroke-width="2"/>
  <text x="80" y="114" text-anchor="middle" font-family="Comic Sans MS, cursive" font-size="10" fill="black">1</text>
  <text x="80" y="140" text-anchor="middle" font-family="Comic Sans MS, cursive" font-size="6" fill="black">Henry pulls</text>
  <text x="80" y="150" text-anchor="middle" font-family="Comic Sans MS, cursive" font-size="6" fill="black">the mat</text>
  <!-- Henry the Horse pulling -->
  <ellipse cx="80" cy="175" rx="20" ry="12" fill="none" stroke="black" stroke-width="2"/>
  <path d="M 60 175 L 40 170" stroke="black" stroke-width="2"/>
  <rect x="35" y="160" width="15" height="20" fill="none" stroke="black" stroke-width="1.5"/>
  <!-- Arrow to step 2 -->
  <path d="M 100 175 L 150 175" stroke="black" stroke-width="1.5" stroke-dasharray="3 2"/>
  <polygon points="150,175 143,171 143,179" fill="black"/>
  <!-- STEP 2 -->
  <circle cx="180" cy="175" r="12" fill="none" stroke="black" stroke-width="2"/>
  <text x="180" y="179" text-anchor="middle" font-family="Comic Sans MS, cursive" font-size="10" fill="black">2</text>
  <text x="180" y="205" text-anchor="middle" font-family="Comic Sans MS, cursive" font-size="6" fill="black">Salami on</text>
  <text x="180" y="215" text-anchor="middle" font-family="Comic Sans MS, cursive" font-size="6" fill="black">rope</text>
  <!-- Salami on rope -->
  <ellipse cx="180" cy="240" rx="15" ry="10" fill="none" stroke="black" stroke-width="2"/>
  <line x1="180" y1="230" x2="180" y2="200" stroke="black" stroke-width="1.5"/>
  <circle cx="180" cy="195" r="3" fill="none" stroke="black" stroke-width="1"/>
  <!-- Arrow to step 3 -->
  <path d="M 200 240 L 250 240" stroke="black" stroke-width="1.5" stroke-dasharray="3 2"/>
  <polygon points="250,240 243,236 243,244" fill="black"/>
  <!-- STEP 3 -->
  <circle cx="280" cy="240" r="12" fill="none" stroke="black" stroke-width="2"/>
  <text x="280" y="244" text-anchor="middle" font-family="Comic Sans MS, cursive" font-size="10" fill="black">3</text>
  <text x="280" y="270" text-anchor="middle" font-family="Comic Sans MS, cursive" font-size="6" fill="black">Barnaby</text>
  <text x="280" y="280" text-anchor="middle" font-family="Comic Sans MS, cursive" font-size="6" fill="black">holds tail</text>
  <!-- Barnaby holding tail -->
  <circle cx="280" cy="305" r="10" fill="none" stroke="black" stroke-width="2"/>
  <path d="M 272 310 L 260 315" stroke="black" stroke-width="2"/>
  <path d="M 288 310 L 300 305" stroke="black" stroke-width="2"/>
  <!-- Checkmarks -->
  <path d="M 75 105 L 78 108 L 85 101" stroke="black" stroke-width="1.5" stroke-linecap="round"/>
  <path d="M 175 170 L 178 173 L 185 166" stroke="black" stroke-width="1.5" stroke-linecap="round"/>
  <path d="M 275 235 L 278 238 L 285 231" stroke="black" stroke-width="1.5" stroke-linecap="round"/>
  <!-- Small explosion doodle -->
  <path d="M 320 100 Q 325 90 330 100 Q 335 85 340 100 Q 345 90 350 100" fill="none" stroke="black" stroke-width="1.5"/>
  <text x="335" y="115" text-anchor="middle" font-family="Comic Sans MS, cursive" font-size="6" fill="black">KABOOM</text>
  <!-- Notes in margins -->
  <text x="50" y="300" font-family="Comic Sans MS, cursive" font-size="5" fill="black">note: don't</text>
  <text x="50" y="308" font-family="Comic Sans MS, cursive" font-size="5" fill="black">let go!!</text>

  <text x="200" y="385" text-anchor="middle" font-family="Comic Sans MS, cursive" font-size="24" fill="black" font-weight="bold">OPERATION MAT</text>
</svg>