<?xml version="1.0" encoding="UTF-8"?>
<svg xmlns="http://www.w3.org/2000/svg" viewBox="0 0 400 400" width="400" height="400">

  <!-- Wooden walls with peeling paint -->
  <rect x="40" y="40" width="320" height="280" fill="none" stroke="black" stroke-width="2.5"/>
  <!-- Wood planks -->
  <line x1="40" y1="80" x2="360" y2="80" stroke="black" stroke-width="0.5"/>
  <line x1="40" y1="120" x2="360" y2="120" stroke="black" stroke-width="0.5"/>
  <line x1="40" y1="160" x2="360" y2="160" stroke="black" stroke-width="0.5"/>
  <line x1="40" y1="200" x2="360" y2="200" stroke="black" stroke-width="0.5"/>
  <line x1="40" y1="240" x2="360" y2="240" stroke="black" stroke-width="0.5"/>
  <line x1="40" y1="280" x2="360" y2="280" stroke="black" stroke-width="0.5"/>
  <!-- Peeling paint -->
  <path d="M 100 100 Q 105 95 102 105" fill="none" stroke="black" stroke-width="0.8"/>
  <path d="M 250 180 Q 255 175 252 185" fill="none" stroke="black" stroke-width="0.8"/>
  <!-- Porthole window -->
  <circle cx="300" cy="100" r="25" fill="none" stroke="black" stroke-width="2.5"/>
  <circle cx="300" cy="100" r="20" fill="none" stroke="black" stroke-width="1.5"/>
  <line x1="300" y1="80" x2="300" y2="120" stroke="black" stroke-width="1.5"/>
  <line x1="280" y1="100" x2="320" y2="100" stroke="black" stroke-width="1.5"/>
  <!-- Water visible through porthole -->
  <path d="M 285 110 Q 300 105 315 110" stroke="black" stroke-width="1"/>
  <!-- Monitors on wall -->
  <rect x="60" y="70" width="60" height="40" fill="none" stroke="black" stroke-width="2"/>
  <rect x="65" y="75" width="50" height="30" fill="none" stroke="black" stroke-width="1"/>
  <!-- Screen content — map -->
  <path d="M 75 85 Q 90 80 105 90" stroke="black" stroke-width="0.8"/>
  <circle cx="90" cy="85" r="2" fill="black"/>
  <text x="90" y="100" text-anchor="middle" font-family="Comic Sans MS, cursive" font-size="4" fill="black">SURVEILLANCE</text>
  <rect x="130" y="70" width="60" height="40" fill="none" stroke="black" stroke-width="2"/>
  <rect x="135" y="75" width="50" height="30" fill="none" stroke="black" stroke-width="1"/>
  <!-- Screen content — cat face -->
  <circle cx="160" cy="88" r="8" fill="none" stroke="black" stroke-width="1"/>
  <circle cx="157" cy="86" r="1.5" fill="black"/>
  <circle cx="163" cy="86" r="1.5" fill="black"/>
  <text x="160" y="100" text-anchor="middle" font-family="Comic Sans MS, cursive" font-size="4" fill="black">TARGET</text>
  <!-- "MEOW-FIA HQ" sign -->
  <rect x="140" y="130" width="120" height="20" fill="white" stroke="black" stroke-width="2"/>
  <text x="200" y="144" text-anchor="middle" font-family="Comic Sans MS, cursive" font-size="10" fill="black">MEOW-FIA HQ</text>
  <!-- Plush Cat Throne -->
  <rect x="150" y="180" width="100" height="60" fill="none" stroke="black" stroke-width="2.5"/>
  <rect x="155" y="185" width="90" height="30" fill="none" stroke="black" stroke-width="2"/>
  <!-- Throne cushion texture -->
  <line x1="165" y1="195" x2="235" y2="195" stroke="black" stroke-width="0.5"/>
  <line x1="165" y1="200" x2="235" y2="200" stroke="black" stroke-width="0.5"/>
  <line x1="165" y1="205" x2="235" y2="205" stroke="black" stroke-width="0.5"/>
  <!-- Throne arms -->
  <path d="M 150 180 L 140 170 L 140 200" fill="none" stroke="black" stroke-width="2"/>
  <path d="M 250 180 L 260 170 L 260 200" fill="none" stroke="black" stroke-width="2"/>
  <!-- Ginger cat on throne -->
  <ellipse cx="200" cy="175" rx="20" ry="15" fill="none" stroke="black" stroke-width="2.5"/>
  <circle cx="200" cy="158" r="12" fill="none" stroke="black" stroke-width="2.5"/>
  <path d="M 190 148 L 185 135 L 195 145" fill="none" stroke="black" stroke-width="2"/>
  <path d="M 210 148 L 215 135 L 205 145" fill="none" stroke="black" stroke-width="2"/>
  <circle cx="195" cy="155" r="2" fill="black"/>
  <circle cx="205" cy="155" r="2" fill="black"/>
  <path d="M 196 163 Q 200 168 204 163" stroke="black" stroke-width="1.5"/>
  <!-- Cat's smug expression -->
  <path d="M 193 160 L 190 158" stroke="black" stroke-width="1"/>
  <path d="M 207 160 L 210 158" stroke="black" stroke-width="1"/>
  <!-- Tiny cat soldiers -->
  <circle cx="100" cy="260" r="6" fill="none" stroke="black" stroke-width="1.5"/>
  <line x1="100" y1="266" x2="100" y2="280" stroke="black" stroke-width="1.5"/>
  <line x1="95" y1="270" x2="105" y2="270" stroke="black" stroke-width="1"/>
  <circle cx="120" cy="260" r="6" fill="none" stroke="black" stroke-width="1.5"/>
  <line x1="120" y1="266" x2="120" y2="280" stroke="black" stroke-width="1.5"/>
  <line x1="115" y1="270" x2="125" y2="270" stroke="black" stroke-width="1"/>
  <circle cx="280" cy="260" r="6" fill="none" stroke="black" stroke-width="1.5"/>
  <line x1="280" y1="266" x2="280" y2="280" stroke="black" stroke-width="1.5"/>
  <line x1="275" y1="270" x2="285" y2="270" stroke="black" stroke-width="1"/>
  <circle cx="300" cy="260" r="6" fill="none" stroke="black" stroke-width="1.5"/>
  <line x1="300" y1="266" x2="300" y2="280" stroke="black" stroke-width="1.5"/>
  <line x1="295" y1="270" x2="305" y2="270" stroke="black" stroke-width="1"/>
  <!-- Soldier spears -->
  <line x1="100" y1="255" x2="100" y2="240" stroke="black" stroke-width="1"/>
  <line x1="120" y1="255" x2="120" y2="240" stroke="black" stroke-width="1"/>
  <line x1="280" y1="255" x2="280" y2="240" stroke="black" stroke-width="1"/>
  <line x1="300" y1="255" x2="300" y2="240" stroke="black" stroke-width="1"/>

  <text x="200" y="385" text-anchor="middle" font-family="Comic Sans MS, cursive" font-size="24" fill="black" font-weight="bold">CAT HQ</text>
</svg>