<?xml version="1.0" encoding="UTF-8"?>
<svg xmlns="http://www.w3.org/2000/svg" viewBox="0 0 400 400" width="400" height="400">

  <rect x="40" y="40" width="320" height="300" fill="none" stroke="black" stroke-width="2.5"/>
  <!-- Velvet cushion on pedestal -->
  <rect x="120" y="200" width="160" height="40" fill="none" stroke="black" stroke-width="2.5"/>
  <rect x="130" y="205" width="140" height="30" fill="none" stroke="black" stroke-width="1.5"/>
  <line x1="150" y1="210" x2="250" y2="210" stroke="black" stroke-width="0.5"/>
  <line x1="150" y1="220" x2="250" y2="220" stroke="black" stroke-width="0.5"/>
  <!-- Simba on throne — military pose -->
  <ellipse cx="200" cy="175" rx="35" ry="30" fill="none" stroke="black" stroke-width="2.5"/>
  <circle cx="200" cy="140" r="22" fill="none" stroke="black" stroke-width="2.5"/>
  <path d="M 182 125 L 175 108 L 190 120" fill="none" stroke="black" stroke-width="2"/>
  <path d="M 218 125 L 225 108 L 210 120" fill="none" stroke="black" stroke-width="2"/>
  <circle cx="192" cy="135" r="4" fill="black"/>
  <circle cx="208" cy="135" r="4" fill="black"/>
  <path d="M 193 150 Q 200 155 207 150" stroke="black" stroke-width="2"/>
  <!-- Military medals -->
  <circle cx="185" cy="170" r="4" fill="none" stroke="black" stroke-width="1.5"/>
  <circle cx="200" cy="175" r="4" fill="none" stroke="black" stroke-width="1.5"/>
  <circle cx="215" cy="170" r="4" fill="none" stroke="black" stroke-width="1.5"/>
  <!-- Tiny sword -->
  <line x1="240" y1="165" x2="265" y2="150" stroke="black" stroke-width="2"/>
  <line x1="238" y1="168" x2="242" y2="162" stroke="black" stroke-width="1.5"/>
  <!-- Cape -->
  <path d="M 165 190 Q 150 210 160 230" stroke="black" stroke-width="2"/>
  <path d="M 235 190 Q 250 210 240 230" stroke="black" stroke-width="2"/>
  <!-- Bea and Barnaby looking up -->
  <circle cx="100" cy="260" r="12" fill="none" stroke="black" stroke-width="2"/>
  <circle cx="140" cy="265" r="10" fill="none" stroke="black" stroke-width="2"/>
  <text x="100" y="255" text-anchor="middle" font-family="Comic Sans MS, cursive" font-size="5" fill="black">Bea</text>
  <text x="140" y="260" text-anchor="middle" font-family="Comic Sans MS, cursive" font-size="5" fill="black">Barnaby</text>
  <!-- Cat soldiers with spears -->
  <circle cx="80" cy="180" r="8" fill="none" stroke="black" stroke-width="1.5"/>
  <line x1="80" y1="165" x2="80" y2="145" stroke="black" stroke-width="1"/>
  <circle cx="320" cy="180" r="8" fill="none" stroke="black" stroke-width="1.5"/>
  <line x1="320" y1="165" x2="320" y2="145" stroke="black" stroke-width="1"/>
  <circle cx="60" cy="220" r="6" fill="none" stroke="black" stroke-width="1.2"/>
  <line x1="60" y1="208" x2="60" y2="195" stroke="black" stroke-width="0.8"/>
  <circle cx="340" cy="220" r="6" fill="none" stroke="black" stroke-width="1.2"/>
  <line x1="340" y1="208" x2="340" y2="195" stroke="black" stroke-width="0.8"/>
  <!-- "SURRENDER" flag -->
  <rect x="180" y="50" width="40" height="25" fill="white" stroke="black" stroke-width="1.5"/>
  <text x="200" y="60" text-anchor="middle" font-family="Comic Sans MS, cursive" font-size="6" fill="black">SURRENDER</text>
  <line x1="200" y1="50" x2="200" y2="75" stroke="black" stroke-width="1"/>
  <!-- Dramatic lighting lines -->
  <line x1="200" y1="40" x2="200" y2="30" stroke="black" stroke-width="1"/>
  <line x1="185" y1="42" x2="180" y2="32" stroke="black" stroke-width="1"/>
  <line x1="215" y1="42" x2="220" y2="32" stroke="black" stroke-width="1"/>

  <text x="200" y="385" text-anchor="middle" font-family="Comic Sans MS, cursive" font-size="24" fill="black" font-weight="bold">GENERAL SIMBA</text>
</svg>