<?xml version="1.0" encoding="UTF-8"?>
<svg xmlns="http://www.w3.org/2000/svg" viewBox="0 0 400 400" width="400" height="400">

  <!-- Mushroom cloud -->
  <path d="M 120 200 Q 100 150 130 100 Q 160 60 200 40 Q 240 60 270 100 Q 300 150 280 200" fill="none" stroke="black" stroke-width="3"/>
  <path d="M 140 200 Q 130 170 150 140 Q 170 110 200 100 Q 230 110 250 140 Q 270 170 260 200" fill="none" stroke="black" stroke-width="2"/>
  <!-- Cloud puffs -->
  <ellipse cx="160" cy="80" rx="25" ry="15" fill="none" stroke="black" stroke-width="2"/>
  <ellipse cx="200" cy="60" rx="30" ry="18" fill="none" stroke="black" stroke-width="2"/>
  <ellipse cx="240" cy="80" ry="15" rx="25" fill="none" stroke="black" stroke-width="2"/>
  <ellipse cx="180" cy="45" rx="20" ry="12" fill="none" stroke="black" stroke-width="1.5"/>
  <ellipse cx="220" cy="45" rx="20" ry="12" fill="none" stroke="black" stroke-width="1.5"/>
  <!-- "BOOM" text -->
  <text x="200" y="90" text-anchor="middle" font-family="Comic Sans MS, cursive" font-size="20" fill="black">BOOM</text>
  <!-- Flying soy sauce bottles -->
  <rect x="80" y="60" width="15" height="30" fill="none" stroke="black" stroke-width="2" transform="rotate(-20 87 75)"/>
  <rect x="300" y="70" width="15" height="30" fill="none" stroke="black" stroke-width="2" transform="rotate(30 307 85)"/>
  <rect x="50" y="120" width="12" height="25" fill="none" stroke="black" stroke-width="1.5" transform="rotate(-45 56 132)"/>
  <rect x="330" y="110" width="12" height="25" fill="none" stroke="black" stroke-width="1.5" transform="rotate(60 336 122)"/>
  <!-- Simba — shocked -->
  <circle cx="100" cy="250" r="20" fill="none" stroke="black" stroke-width="2.5"/>
  <circle cx="92" cy="245" r="4" fill="black"/>
  <circle cx="108" cy="245" r="4" fill="black"/>
  <ellipse cx="100" cy="260" rx="8" ry="5" fill="none" stroke="black" stroke-width="2"/>
  <!-- Sweat drops -->
  <ellipse cx="80" cy="238" rx="4" ry="6" fill="none" stroke="black" stroke-width="1"/>
  <ellipse cx="120" cy="235" rx="3" ry="5" fill="none" stroke="black" stroke-width="1"/>
  <!-- Duke — shocked -->
  <ellipse cx="300" cy="250" rx="25" ry="20" fill="none" stroke="black" stroke-width="2.5"/>
  <circle cx="300" cy="230" r="15" fill="none" stroke="black" stroke-width="2.5"/>
  <circle cx="294" cy="226" r="3" fill="black"/>
  <circle cx="306" cy="226" r="3" fill="black"/>
  <path d="M 295 240 Q 300 245 305 240" stroke="black" stroke-width="2"/>
  <!-- Dukeears -->
  <path d="M 288 218 L 280 205 L 292 215" fill="none" stroke="black" stroke-width="1.5"/>
  <path d="M 312 218 L 320 205 L 308 215" fill="none" stroke="black" stroke-width="1.5"/>
  <!-- Broken containers on ground -->
  <path d="M 60 300 L 80 290 L 70 310" fill="none" stroke="black" stroke-width="1.5"/>
  <path d="M 140 310 L 160 295 L 155 315" fill="none" stroke="black" stroke-width="1.5"/>
  <path d="M 250 305 L 270 290 L 265 312" fill="none" stroke="black" stroke-width="1.5"/>
  <!-- Motion lines -->
  <path d="M 40 200 L 20 190" stroke="black" stroke-width="1" stroke-dasharray="3 2"/>
  <path d="M 360 200 L 380 190" stroke="black" stroke-width="1" stroke-dasharray="3 2"/>
  <path d="M 200 30 L 200 10" stroke="black" stroke-width="1" stroke-dasharray="3 2"/>

  <text x="200" y="385" text-anchor="middle" font-family="Comic Sans MS, cursive" font-size="24" fill="black" font-weight="bold">SOY SAUCE EXPLOSION</text>
</svg>