<?xml version="1.0" encoding="UTF-8"?>
<svg xmlns="http://www.w3.org/2000/svg" viewBox="0 0 400 400" width="400" height="400">

  <path d="M 60 350 L 60 100 Q 200 20 340 100 L 340 350" fill="none" stroke="black" stroke-width="2.5"/>
  <path d="M 80 350 L 80 110 Q 200 35 320 110 L 320 350" fill="none" stroke="black" stroke-width="1.5" stroke-dasharray="3 3"/>
  <!-- Dangling glass shards -->
  <path d="M 100 120 L 95 140 L 105 145 L 100 120" fill="none" stroke="black" stroke-width="1.5"/>
  <path d="M 150 100 L 145 125 L 155 130" fill="none" stroke="black" stroke-width="1.5"/>
  <path d="M 250 95 L 245 120 L 255 125" fill="none" stroke="black" stroke-width="1.5"/>
  <path d="M 300 115 L 295 135 L 305 140 L 300 115" fill="none" stroke="black" stroke-width="1.5"/>
  <!-- DANGER sign -->
  <rect x="160" y="150" width="80" height="40" fill="white" stroke="black" stroke-width="2"/>
  <text x="200" y="168" text-anchor="middle" font-family="Comic Sans MS, cursive" font-size="10" fill="black">DANGER</text>
  <text x="200" y="182" text-anchor="middle" font-family="Comic Sans MS, cursive" font-size="7" fill="black">DO NOT ENTER</text>
  <!-- Skull and crossbones -->
  <circle cx="200" cy="220" r="12" fill="none" stroke="black" stroke-width="2"/>
  <circle cx="195" cy="217" r="2" fill="black"/>
  <circle cx="205" cy="217" r="2" fill="black"/>
  <path d="M 195 227 L 205 227" stroke="black" stroke-width="2"/>
  <line x1="200" y1="232" x2="195" y2="245" stroke="black" stroke-width="2"/>
  <line x1="200" y1="232" x2="205" y2="245" stroke="black" stroke-width="2"/>
  <line x1="195" y1="245" x2="205" y2="245" stroke="black" stroke-width="2"/>
  <!-- Cobwebs -->
  <path d="M 60 100 Q 70 90 80 100 Q 90 90 100 100" stroke="black" stroke-width="1"/>
  <path d="M 300 100 Q 310 90 320 100 Q 330 90 340 100" stroke="black" stroke-width="1"/>
  <line x1="70" y1="90" x2="70" y2="70" stroke="black" stroke-width="0.5"/>
  <line x1="310" y1="90" x2="310" y2="70" stroke="black" stroke-width="0.5"/>
  <!-- Rocks falling -->
  <rect x="180" y="280" width="15" height="10" fill="none" stroke="black" stroke-width="1.5"/>
  <rect x="210" y="300" width="12" height="8" fill="none" stroke="black" stroke-width="1.5"/>
  <rect x="195" y="320" width="10" height="7" fill="none" stroke="black" stroke-width="1"/>
  <!-- Flashlight beam from above -->
  <path d="M 200 0 L 170 100 L 230 100 Z" fill="none" stroke="black" stroke-width="1" stroke-dasharray="2 2"/>
  <!-- Darkness inside -->
  <text x="200" y="270" text-anchor="middle" font-family="Comic Sans MS, cursive" font-size="8" fill="black">it's dark...</text>

  <text x="200" y="385" text-anchor="middle" font-family="Comic Sans MS, cursive" font-size="24" fill="black" font-weight="bold">THE SINKHOLE</text>
</svg>