<?xml version="1.0" encoding="UTF-8"?>
<svg xmlns="http://www.w3.org/2000/svg" viewBox="0 0 400 400" width="400" height="400">

  <!-- Giant salami on rope -->
  <ellipse cx="200" cy="150" rx="60" ry="35" fill="none" stroke="black" stroke-width="3"/>
  <circle cx="170" cy="140" r="5" fill="none" stroke="black" stroke-width="1.5"/>
  <circle cx="200" cy="135" r="4" fill="none" stroke="black" stroke-width="1.5"/>
  <circle cx="230" cy="145" r="3" fill="none" stroke="black" stroke-width="1"/>
  <!-- Rope going up -->
  <path d="M 200 115 L 200 40" stroke="black" stroke-width="2.5"/>
  <circle cx="200" cy="35" r="5" fill="none" stroke="black" stroke-width="2"/>
  <!-- Crack in ground below -->
  <path d="M 100 200 Q 150 220 200 210 Q 250 200 300 220" fill="none" stroke="black" stroke-width="2.5"/>
  <path d="M 120 220 Q 160 240 200 230 Q 240 220 280 240" fill="none" stroke="black" stroke-width="1.5"/>
  <!-- Barnaby holding tail — strained expression -->
  <circle cx="280" cy="200" r="18" fill="none" stroke="black" stroke-width="2.5"/>
  <circle cx="274" cy="195" r="3" fill="black"/>
  <circle cx="286" cy="195" r="3" fill="black"/>
  <path d="M 272 210 Q 280 218 288 210" stroke="black" stroke-width="2"/>
  <!-- Strain lines -->
  <line x1="265" y1="190" x2="260" y2="185" stroke="black" stroke-width="1"/>
  <line x1="295" y1="190" x2="300" y2="185" stroke="black" stroke-width="1"/>
  <!-- Barnaby's arms pulling -->
  <path d="M 265 210 Q 250 220 240 215" stroke="black" stroke-width="2.5"/>
  <path d="M 295 210 Q 310 220 320 215" stroke="black" stroke-width="2.5"/>
  <!-- Bea pulling rope -->
  <circle cx="200" cy="250" r="15" fill="none" stroke="black" stroke-width="2.5"/>
  <circle cx="194" cy="245" r="2.5" fill="black"/>
  <circle cx="206" cy="245" r="2.5" fill="black"/>
  <path d="M 195 260 Q 200 265 205 260" stroke="black" stroke-width="2"/>
  <!-- Bea's arms pulling rope -->
  <path d="M 190 260 Q 185 275 190 285" stroke="black" stroke-width="2"/>
  <path d="M 210 260 Q 215 275 210 285" stroke="black" stroke-width="2"/>
  <!-- "ALMOST THERE" text -->
  <text x="200" y="310" text-anchor="middle" font-family="Comic Sans MS, cursive" font-size="12" fill="black">ALMOST THERE!</text>
  <!-- Motion lines -->
  <path d="M 195 100 L 190 90" stroke="black" stroke-width="1" stroke-dasharray="2 2"/>
  <path d="M 205 100 L 210 90" stroke="black" stroke-width="1" stroke-dasharray="2 2"/>

  <text x="200" y="385" text-anchor="middle" font-family="Comic Sans MS, cursive" font-size="24" fill="black" font-weight="bold">SALAMI RESCUE</text>
</svg>