<?xml version="1.0" encoding="UTF-8"?>
<svg xmlns="http://www.w3.org/2000/svg" viewBox="0 0 400 400" width="400" height="400">

  <!-- Salami as bobsled -->
  <ellipse cx="200" cy="200" rx="80" ry="30" fill="none" stroke="black" stroke-width="3"/>
  <path d="M 120 200 Q 120 220 200 230 Q 280 220 280 200" fill="none" stroke="black" stroke-width="2"/>
  <!-- Runners -->
  <path d="M 140 230 L 140 245" stroke="black" stroke-width="2.5"/>
  <path d="M 260 230 L 260 245" stroke="black" stroke-width="2.5"/>
  <!-- Bea at front -->
  <circle cx="160" cy="180" r="12" fill="none" stroke="black" stroke-width="2"/>
  <circle cx="155" cy="176" r="2" fill="black"/>
  <circle cx="165" cy="176" r="2" fill="black"/>
  <path d="M 155 188 Q 160 193 165 188" stroke="black" stroke-width="2"/>
  <!-- Maya in middle -->
  <circle cx="200" cy="175" r="11" fill="none" stroke="black" stroke-width="2"/>
  <circle cx="196" cy="171" r="2" fill="black"/>
  <circle cx="204" cy="171" r="2" fill="black"/>
  <path d="M 196 183 Q 200 188 204 183" stroke="black" stroke-width="2"/>
  <!-- Barnaby at back — terrified -->
  <circle cx="240" cy="178" r="13" fill="none" stroke="black" stroke-width="2"/>
  <circle cx="234" cy="173" r="3" fill="black"/>
  <circle cx="246" cy="173" r="3" fill="black"/>
  <ellipse cx="240" cy="188" rx="6" ry="4" fill="none" stroke="black" stroke-width="2"/>
  <!-- Sweat on Barnaby -->
  <ellipse cx="255" cy="170" rx="3" ry="5" fill="none" stroke="black" stroke-width="1"/>
  <!-- Speed lines -->
  <line x1="100" y1="190" x2="60" y2="185" stroke="black" stroke-width="1.5"/>
  <line x1="100" y1="200" x2="55" y2="200" stroke="black" stroke-width="1.5"/>
  <line x1="100" y1="210" x2="60" y2="215" stroke="black" stroke-width="1.5"/>
  <!-- Pipe they're sliding through -->
  <path d="M 40 150 Q 200 120 360 150" stroke="black" stroke-width="2" stroke-dasharray="5 3"/>
  <path d="M 40 250 Q 200 280 360 250" stroke="black" stroke-width="2" stroke-dasharray="5 3"/>
  <!-- "WHEEE" text -->
  <text x="160" y="155" text-anchor="middle" font-family="Comic Sans MS, cursive" font-size="10" fill="black">WHEEE!</text>
  <!-- Motion blur -->
  <path d="M 280 190 Q 320 185 350 190" stroke="black" stroke-width="1" stroke-dasharray="2 2"/>

  <text x="200" y="385" text-anchor="middle" font-family="Comic Sans MS, cursive" font-size="24" fill="black" font-weight="bold">SALAMI BOBSLED</text>
</svg>