<?xml version="1.0" encoding="UTF-8"?>
<svg xmlns="http://www.w3.org/2000/svg" viewBox="0 0 400 400" width="400" height="400">

  <!-- Museum columns -->
  <rect x="80" y="60" width="25" height="200" fill="none" stroke="black" stroke-width="2.5"/>
  <rect x="295" y="60" width="25" height="200" fill="none" stroke="black" stroke-width="2.5"/>
  <!-- Column bases -->
  <rect x="75" y="255" width="35" height="15" fill="none" stroke="black" stroke-width="2"/>
  <rect x="290" y="255" width="35" height="15" fill="none" stroke="black" stroke-width="2"/>
  <!-- Column capitals -->
  <path d="M 75 60 L 80 50 L 105 50 L 110 60" fill="none" stroke="black" stroke-width="2"/>
  <path d="M 290 60 L 295 50 L 320 50 L 325 60" fill="none" stroke="black" stroke-width="2"/>
  <!-- Entablature -->
  <rect x="70" y="45" width="260" height="15" fill="none" stroke="black" stroke-width="2.5"/>
  <!-- "MUSEUM" sign -->
  <rect x="150" y="65" width="100" height="25" fill="white" stroke="black" stroke-width="2"/>
  <text x="200" y="82" text-anchor="middle" font-family="Comic Sans MS, cursive" font-size="12" fill="black">MUSEUM</text>
  <!-- Red carpet -->
  <path d="M 200 280 L 170 350 L 230 350 Z" fill="none" stroke="black" stroke-width="2"/>
  <line x1="185" y1="310" x2="200" y2="280" stroke="black" stroke-width="1"/>
  <line x1="215" y1="310" x2="200" y2="280" stroke="black" stroke-width="1"/>
  <!-- Simba at top of steps — dramatic pose -->
  <ellipse cx="200" cy="240" rx="25" ry="20" fill="none" stroke="black" stroke-width="2.5"/>
  <circle cx="200" cy="218" r="18" fill="none" stroke="black" stroke-width="2.5"/>
  <path d="M 186 205 L 180 190 L 192 202" fill="none" stroke="black" stroke-width="2"/>
  <path d="M 214 205 L 220 190 L 208 202" fill="none" stroke="black" stroke-width="2"/>
  <circle cx="194" cy="214" r="3" fill="black"/>
  <circle cx="206" cy="214" r="3" fill="black"/>
  <path d="M 195 228 Q 200 235 205 228" stroke="black" stroke-width="2"/>
  <!-- Cape flowing -->
  <path d="M 175 250 Q 160 270 170 290" stroke="black" stroke-width="2"/>
  <path d="M 225 250 Q 240 270 230 290" stroke="black" stroke-width="2"/>
  <!-- Cat guards with spears -->
  <circle cx="140" cy="260" r="10" fill="none" stroke="black" stroke-width="2"/>
  <line x1="140" y1="245" x2="140" y2="225" stroke="black" stroke-width="1.5"/>
  <circle cx="260" cy="260" r="10" fill="none" stroke="black" stroke-width="2"/>
  <line x1="260" y1="245" x2="260" y2="225" stroke="black" stroke-width="1.5"/>
  <!-- "CLOSED" sign -->
  <rect x="250" y="100" width="50" height="25" fill="white" stroke="black" stroke-width="2"/>
  <text x="275" y="117" text-anchor="middle" font-family="Comic Sans MS, cursive" font-size="10" fill="black">CLOSED</text>

  <text x="200" y="385" text-anchor="middle" font-family="Comic Sans MS, cursive" font-size="24" fill="black" font-weight="bold">THE GRAND ENTRANCE</text>
</svg>