<?xml version="1.0" encoding="UTF-8"?>
<svg xmlns="http://www.w3.org/2000/svg" viewBox="0 0 400 400" width="400" height="400">

  <!-- Metal pipe interior -->
  <rect x="80" y="60" width="240" height="280" fill="none" stroke="black" stroke-width="3"/>
  <!-- Pipe texture -->
  <line x1="80" y1="100" x2="320" y2="100" stroke="black" stroke-width="0.5"/>
  <line x1="80" y1="140" x2="320" y2="140" stroke="black" stroke-width="0.5"/>
  <line x1="80" y1="180" x2="320" y2="180" stroke="black" stroke-width="0.5"/>
  <line x1="80" y1="220" x2="320" y2="220" stroke="black" stroke-width="0.5"/>
  <line x1="80" y1="260" x2="320" y2="260" stroke="black" stroke-width="0.5"/>
  <line x1="80" y1="300" x2="320" y2="300" stroke="black" stroke-width="0.5"/>
  <!-- Towels flying -->
  <rect x="60" y="40" width="25" height="15" fill="none" stroke="black" stroke-width="1.5" transform="rotate(-10 72 47)"/>
  <rect x="300" y="50" width="20" height="12" fill="none" stroke="black" stroke-width="1.5" transform="rotate(15 310 56)"/>
  <rect x="50" y="100" width="18" height="10" fill="none" stroke="black" stroke-width="1" transform="rotate(-25 59 105)"/>
  <!-- Soap bubbles -->
  <circle cx="120" cy="80" r="5" fill="none" stroke="black" stroke-width="1"/>
  <circle cx="250" cy="90" r="4" fill="none" stroke="black" stroke-width="1"/>
  <circle cx="180" cy="70" r="3" fill="none" stroke="black" stroke-width="1"/>
  <!-- Three characters falling -->
  <!-- Bea — front -->
  <circle cx="200" cy="150" r="14" fill="none" stroke="black" stroke-width="2"/>
  <circle cx="195" cy="146" r="2" fill="black"/>
  <circle cx="205" cy="146" r="2" fill="black"/>
  <path d="M 194 158 Q 200 165 206 158" stroke="black" stroke-width="2.5" stroke-linecap="round"/>
  <!-- Maya — middle -->
  <circle cx="200" cy="210" r="12" fill="none" stroke="black" stroke-width="2"/>
  <circle cx="196" cy="206" r="2" fill="black"/>
  <circle cx="204" cy="206" r="2" fill="black"/>
  <path d="M 195 218 Q 200 223 205 218" stroke="black" stroke-width="2"/>
  <!-- Barnaby — back, terrified -->
  <circle cx="200" cy="270" r="15" fill="none" stroke="black" stroke-width="2.5"/>
  <circle cx="194" cy="264" r="3" fill="black"/>
  <circle cx="206" cy="264" r="3" fill="black"/>
  <ellipse cx="200" cy="280" rx="8" ry="5" fill="none" stroke="black" stroke-width="2"/>
  <!-- Barnaby sweat -->
  <ellipse cx="220" cy="258" rx="4" ry="6" fill="none" stroke="black" stroke-width="1"/>
  <ellipse cx="180" cy="260" rx="3" ry="4" fill="none" stroke="black" stroke-width="1"/>
  <!-- "AAAAH" text -->
  <text x="200" y="320" text-anchor="middle" font-family="Comic Sans MS, cursive" font-size="18" fill="black">AAAAAHHH!</text>
  <!-- Falling arms/legs -->
  <path d="M 186 160 Q 170 175 160 170" stroke="black" stroke-width="2"/>
  <path d="M 214 160 Q 230 175 240 170" stroke="black" stroke-width="2"/>
  <!-- Mop flying -->
  <line x="280" y1="120" x2="310" y2="150" stroke="black" stroke-width="2"/>
  <path d="M 305 155 Q 315 160 310 170 Q 320 165 315 175" stroke="black" stroke-width="1.5"/>

  <text x="200" y="385" text-anchor="middle" font-family="Comic Sans MS, cursive" font-size="24" fill="black" font-weight="bold">PIPE SLIDE</text>
</svg>