<?xml version="1.0" encoding="UTF-8"?>
<svg xmlns="http://www.w3.org/2000/svg" viewBox="0 0 400 400" width="400" height="400">

  <!-- Henry in heroic pose -->
  <ellipse cx="200" cy="180" rx="60" ry="35" fill="none" stroke="black" stroke-width="2.5"/>
  <path d="M 145 165 Q 130 135 140 110" fill="none" stroke="black" stroke-width="2.5"/>
  <ellipse cx="138" cy="95" rx="22" ry="16" fill="none" stroke="black" stroke-width="2.5"/>
  <path d="M 122 82 L 116 65 L 128 78" fill="none" stroke="black" stroke-width="2"/>
  <path d="M 150 82 L 156 68 L 146 78" fill="none" stroke="black" stroke-width="2"/>
  <circle cx="130" cy="90" r="3" fill="black"/>
  <circle cx="144" cy="90" r="3" fill="black"/>
  <path d="M 130 102 Q 137 108 144 102" stroke="black" stroke-width="2"/>
  <!-- Mane -->
  <path d="M 145 78 Q 158 62 152 50" stroke="black" stroke-width="2"/>
  <path d="M 150 82 Q 162 68 156 55" stroke="black" stroke-width="2"/>
  <!-- Giant salami on silver platter -->
  <ellipse cx="200" cy="250" rx="50" ry="10" fill="none" stroke="black" stroke-width="2"/>
  <ellipse cx="200" cy="245" rx="55" ry="8" fill="none" stroke="black" stroke-width="1.5"/>
  <ellipse cx="200" cy="260" rx="45" ry="25" fill="none" stroke="black" stroke-width="2"/>
  <circle cx="180" cy="255" r="4" fill="none" stroke="black" stroke-width="1"/>
  <circle cx="200" cy="250" r="3" fill="none" stroke="black" stroke-width="1"/>
  <circle cx="220" cy="258" r="3" fill="none" stroke="black" stroke-width="1"/>
  <!-- Henry nudging salami -->
  <path d="M 160 190 Q 180 210 200 220" stroke="black" stroke-width="2"/>
  <!-- Humans cheering -->
  <circle cx="80" cy="280" r="10" fill="none" stroke="black" stroke-width="2"/>
  <line x1="75" y1="270" x2="70" y2="255" stroke="black" stroke-width="1.5"/>
  <line x1="85" y1="270" x2="90" y2="255" stroke="black" stroke-width="1.5"/>
  <circle cx="320" cy="280" r="10" fill="none" stroke="black" stroke-width="2"/>
  <line x1="315" y1="270" x2="310" y2="255" stroke="black" stroke-width="1.5"/>
  <line x1="325" y1="270" x2="330" y2="255" stroke="black" stroke-width="1.5"/>
  <!-- Confetti -->
  <rect x="120" y="60" width="4" height="4" fill="black" transform="rotate(15 122 62)"/>
  <rect x="280" y="50" width="3" height="3" fill="black" transform="rotate(-20 281 51)"/>
  <rect x="150" y="40" width="5" height="3" fill="black" transform="rotate(30 152 41)"/>
  <rect x="250" y="45" width="4" height="4" fill="black" transform="rotate(-10 252 47)"/>
  <!-- Medal around Henry's neck -->
  <circle cx="140" cy="130" r="8" fill="none" stroke="black" stroke-width="2"/>
  <path d="M 140 122 L 140 110" stroke="black" stroke-width="2"/>
  <!-- "HERO" banner -->
  <rect x="140" y="30" width="120" height="25" fill="white" stroke="black" stroke-width="2"/>
  <text x="200" y="47" text-anchor="middle" font-family="Comic Sans MS, cursive" font-size="14" fill="black">HERO!</text>
  <!-- Spotlight from above -->
  <path d="M 170 20 Q 180 0 200 0 Q 220 0 230 20" stroke="black" stroke-width="1" stroke-dasharray="3 2"/>

  <text x="200" y="385" text-anchor="middle" font-family="Comic Sans MS, cursive" font-size="24" fill="black" font-weight="bold">HENRY THE HERO</text>
</svg>