<?xml version="1.0" encoding="UTF-8"?>
<svg xmlns="http://www.w3.org/2000/svg" viewBox="0 0 400 400" width="400" height="400">

  <!-- Park scene with trees -->
  <rect x="40" y="40" width="320" height="280" fill="none" stroke="black" stroke-width="2.5"/>
  <!-- Trees -->
  <rect x="60" y="150" width="10" height="100" fill="none" stroke="black" stroke-width="2"/>
  <circle cx="65" cy="140" r="25" fill="none" stroke="black" stroke-width="2"/>
  <rect x="320" y="160" width="10" height="90" fill="none" stroke="black" stroke-width="2"/>
  <circle cx="325" cy="150" r="20" fill="none" stroke="black" stroke-width="2"/>
  <!-- Park bench -->
  <rect x="150" y="200" width="60" height="5" fill="none" stroke="black" stroke-width="2"/>
  <rect x="155" y="205" width="5" height="15" fill="none" stroke="black" stroke-width="1.5"/>
  <rect x="200" y="205" width="5" height="15" fill="none" stroke="black" stroke-width="1.5"/>
  <!-- Bea and Barnaby in foreground — looking back -->
  <circle cx="120" cy="250" r="12" fill="none" stroke="black" stroke-width="2"/>
  <circle cx="115" cy="246" r="2" fill="black"/>
  <circle cx="125" cy="246" r="2" fill="black"/>
  <path d="M 116 258 Q 120 262 124 258" stroke="black" stroke-width="1.5"/>
  <text x="120" y="242" text-anchor="middle" font-family="Comic Sans MS, cursive" font-size="5" fill="black">Bea</text>
  <circle cx="280" cy="255" r="10" fill="none" stroke="black" stroke-width="2"/>
  <circle cx="276" cy="251" r="2" fill="black"/>
  <circle cx="284" cy="251" r="2" fill="black"/>
  <path d="M 276 262 Q 280 266 284 262" stroke="black" stroke-width="1.5"/>
  <text x="280" y="247" text-anchor="middle" font-family="Comic Sans MS, cursive" font-size="5" fill="black">Barnaby</text>
  <!-- They're looking back — worried expressions -->
  <path d="M 118 258 Q 120 260 122 258" stroke="black" stroke-width="1"/>
  <path d="M 278 262 Q 280 264 282 262" stroke="black" stroke-width="1"/>
  <!-- Ginger cat silhouette in shadows — watching -->
  <path d="M 350 280 Q 360 260 370 250 Q 375 245 380 250 Q 385 245 390 250 Q 395 240 400 245" fill="none" stroke="black" stroke-width="2.5"/>
  <!-- Cat eyes glowing in shadow -->
  <circle cx="372" cy="248" r="3" fill="black"/>
  <circle cx="382" cy="246" r="3" fill="black"/>
  <!-- Cat body in shadow -->
  <ellipse cx="380" cy="275" rx="20" ry="15" fill="black" opacity="0.7"/>
  <!-- Tail curling -->
  <path d="M 400 270 Q 415 260 420 270" stroke="black" stroke-width="2"/>
  <!-- Shadows on ground -->
  <ellipse cx="380" cy="295" rx="25" ry="5" fill="black" opacity="0.3"/>
  <!-- "..." text -->
  <text x="200" y="100" text-anchor="middle" font-family="Comic Sans MS, cursive" font-size="24" fill="black">. . .</text>
  <!-- Moon in sky -->
  <circle cx="320" cy="60" r="15" fill="none" stroke="black" stroke-width="2"/>
  <circle cx="328" cy="55" r="12" fill="white" stroke="white" stroke-width="2"/>
  <!-- "THE END?" text -->
  <text x="200" y="320" text-anchor="middle" font-family="Comic Sans MS, cursive" font-size="10" fill="black">THE END?</text>
  <!-- Small heart doodle -->
  <path d="M 50 50 Q 45 42 38 45 Q 32 48 38 55 Q 44 60 50 65 Q 56 60 62 55 Q 68 48 62 45 Q 55 42 50 50" fill="none" stroke="black" stroke-width="1"/>

  <text x="200" y="385" text-anchor="middle" font-family="Comic Sans MS, cursive" font-size="24" fill="black" font-weight="bold">TO BE CONTINUED...</text>
</svg>